     
      Tucker and Dale vs. Evil [2010] DvDRip XviD - CODY.avi


   General
      Complete name : Tucker and Dale vs. Evil [2010] DvDRip XviD - CODY.avi
      Format : AVI
      Format/Info : Audio Video Interleave
      Format profile : OpenDML
      File size : 694 MiB
      Duration : 1h 24mn
      Overall bit rate : 1 143 Kbps
      Writing application : AVI-Mux GUI 1.17.8, Aug 30 2008  12:36:58
   Video #0
      ID : 0
      Format : MPEG-4 Visual
      Format profile : AdvancedSimple@L5
      Format settings, BVOP : Yes
      Format settings, QPel : No
      Format settings, GMC : No warppoints
      Format settings, Matrix : Default (H.263)
      Muxing mode : Packed bitstream
      Codec ID : XVID
      Codec ID/Hint : XviD
      Duration : 1h 24mn
      Bit rate : 1 010 Kbps
      Width : 720 pixels
      Height : 304 pixels
      Display aspect ratio : 2.35:1
      Frame rate : 25.000 fps
      Resolution : 24 bits
      Colorimetry : 4:2:0
      Scan type : Progressive
      Bits/(Pixel*Frame) : 0.185
      Stream size : 614 MiB (88%)
      Writing library : XviD 1.2.0.dev47 (UTC 2006-11-01)
   Audio #1
      ID : 1
      Format : MPEG Audio
      Format version : Version 1
      Format profile : Layer 3
      Codec ID : 55
      Codec ID/Hint : MP3
      Duration : 1h 24mn
      Bit rate mode : Constant
      Bit rate : 128 Kbps
      Channel(s) : 2 channels
      Sampling rate : 48.0 KHz
      Resolution : 16 bits
      Stream size : 77.8 MiB (11%)
      Alignment : Aligned on interleaves
      Interleave, duration : 24 ms (0.60 video frame)
      Interleave, preload duration : 1008 ms
      Writing library : LAME3.97 
      Encoding settings : -m s -V 4 -q 2 -lowpass 17 -b 128-m s -V 4 -q 2 -lowpass 17 -b 128-m s -V 4 -q 2 -lowpass 17 -b 128



IMDB link:                      http://www.imdb.com/title/tt1465522/


Subtitles included             : Romanian